<svg xmlns="http://www.w3.org/2000/svg" width="140.957" height="28.399" viewBox="0 0 140.957 28.399">
  <g id="iconGOVCO" transform="translate(-4.93 -3.58)">
    <g id="Grupo_723" data-name="Grupo 723" transform="translate(4.93 5.603)">
      <path id="Trazado_912" data-name="Trazado 912" d="M27.468,14.677l-1.794.681-.172.485-.4.26a14.249,14.249,0,0,0-.219-2.084l.645-.006,1.2-1.456-1.735.746-.154.509-1.7,1.291a13.285,13.285,0,0,1,.071,2.238l.379-.255c.166,7.1-3.084,9.768-3.084,9.768a2.858,2.858,0,0,1-1.03-.657c2.96-3.3,2.824-8.063,2.818-8.235l-.314.207a15.2,15.2,0,0,0,.041-2.22l-.545.414c-.012-.485-.041-.894-.077-1.172a1.414,1.414,0,0,0,.947-.231,2.036,2.036,0,0,0,.5-1.113c.047-.272-.006-.361-.172-.468a5.244,5.244,0,0,1-.645-.556s.284-.118.941.189c.71.337,1.255.172,1.859-.728l-.722.1.065-.5.036.018a2.521,2.521,0,0,0,.61.231c.166.036.16.012.26.071s.189.089.243.059c0,0,.408.231.568,0a2.363,2.363,0,0,0,.237.124,1.232,1.232,0,0,0,.385.1.691.691,0,0,1,.249.065c.255.13.414.065.45,0s-.16-.266-.314-.391a.78.78,0,0,0-.284-.154c.047-.036.036-.083-.059-.2a1.874,1.874,0,0,0-.42-.278c.006-.095-.367-.326-.586-.491s-.13-.16-.367-.4A23.352,23.352,0,0,0,23.33,9.16a13.653,13.653,0,0,0-3.244-1.894,2.876,2.876,0,0,0-2.516.018.765.765,0,0,0-.3,1.036,7.081,7.081,0,0,0,.379.817c.107.207.018.207-.03.237s.006.112-.041.107-.077.053-.142.124a.486.486,0,0,1-.237.089.208.208,0,0,1,.036-.172.748.748,0,0,0-.225-.065c.018-.036.083-.059.083-.059a.829.829,0,0,0-.26.006.172.172,0,0,1,.053-.053.377.377,0,0,0-.367.142,1.184,1.184,0,0,0-.255-.3c-.095-.089-.148-.219-.249-.326a.3.3,0,0,0,.024-.26.539.539,0,0,0-.326-.255.142.142,0,0,0,.077-.142c-.012-.1-.107-.136-.2-.1a.678.678,0,0,0-.29.1,1.027,1.027,0,0,1-.142,0,.723.723,0,0,0-.343-.924,2.9,2.9,0,0,0-2.516-.018A13.653,13.653,0,0,0,9.05,9.16c-.527.385-1.593,1.231-1.829,1.474s-.142.231-.367.4-.592.4-.586.491a1.749,1.749,0,0,0-.42.278c-.1.118-.112.166-.065.2a.679.679,0,0,0-.284.154c-.154.124-.349.332-.314.391s.189.13.45,0a.626.626,0,0,1,.243-.065,1.424,1.424,0,0,0,.385-.1,2.363,2.363,0,0,0,.237-.124c.166.231.568,0,.568,0A.3.3,0,0,0,7.31,12.2c.1-.059.1-.036.26-.071a2.3,2.3,0,0,0,.61-.231.148.148,0,0,1,.041-.024l.065.5-.71-.1c.6.9,1.148,1.066,1.859.728.663-.308.941-.189.941-.189a5.721,5.721,0,0,1-.645.556c-.166.107-.219.2-.172.468a2.018,2.018,0,0,0,.5,1.113,1.456,1.456,0,0,0,.947.231c-.036.284-.059.687-.077,1.172l-.551-.42a16.234,16.234,0,0,0,.041,2.226l-.314-.207c-.006.172-.142,4.937,2.818,8.235a2.945,2.945,0,0,1-1.03.657s-3.244-2.67-3.078-9.768l.379.255a12.711,12.711,0,0,1,.071-2.244L7.57,13.807l-.16-.509-1.735-.746,1.2,1.456.645.006A13.2,13.2,0,0,0,7.3,16.1l-.4-.26-.172-.485L4.93,14.671,6.2,16.086l.633-.041s-.645,6.281,1.486,9.662c1.776,2.812,4.363,2.836,6.713,1.255a15.355,15.355,0,0,1-1.16,2.581,6.43,6.43,0,0,1,.947.083,5.46,5.46,0,0,1-.148.533c-.047.124-.041.332.2.343s.556.036.556.036-.041.3-.047.45c-.006.213-.03.3.817.337.882-.036.829-.124.817-.337-.006-.16-.047-.45-.047-.45s.314-.03.556-.036.249-.219.2-.343-.148-.533-.148-.533a6.481,6.481,0,0,1,.953-.083,15.56,15.56,0,0,1-1.166-2.581c2.356,1.581,4.943,1.563,6.719-1.255,2.131-3.38,1.486-9.662,1.486-9.662l.633.041ZM17.2,12.244c.071-.314.124-.58.2-.539a.176.176,0,0,0,.219-.006c.041-.053.053-.059.089-.006s.231.154.361-.071.095-.112.13-.024.142.124.255.03a1.837,1.837,0,0,1,.284-.207c.083-.041.083-.018.13-.1s.118-.118.124-.172-.047-.112.03-.154.112-.071.184-.036.089-.036.124.012.083.047.13,0,.077-.124.13-.036.172.112.2.065.047-.047.077.024a.264.264,0,0,0,.278.1s.118.166.26.136.2-.1.2-.2-.047-.432.047-.355.095.041.124-.018.077.006.124-.006.041-.071.124.006.089.124.166.142a.35.35,0,0,1,.2.124c.083.089.172.178.32.124,0,0,.095.124.2.112,0,0,.2.219.314.184a.833.833,0,0,0,.26.071c.065-.006.077-.053.118-.03s.024-.077.083-.006.172.2.243.172a.792.792,0,0,0,.29.154c.13.018.166.053.207.053s.018-.041.095.018a.288.288,0,0,0,.249.059.255.255,0,0,1,.16-.018h.077a.822.822,0,0,1-.977.284c-.663-.207-.858-.107-1,.03a2.647,2.647,0,0,0-.527.793c-.083.255-.041.45.45,1.024a4.377,4.377,0,0,1-1.48-.231,3.231,3.231,0,0,0-2.409-.018c-.136.059-.26.118-.379.178-.089-.089-.308-.314-.385-.414a2.3,2.3,0,0,0,.047-.414.561.561,0,0,0-.071-.337A.574.574,0,0,1,17.2,12.244Zm3.38,2.777a3.57,3.57,0,0,1-1.942.509,3.924,3.924,0,0,1-1.693-.355,3.474,3.474,0,0,1,1.622-.491,4.366,4.366,0,0,1,1.8.26C20.423,14.967,20.494,14.991,20.577,15.021Zm-3.884-1.338c.006,0,.012.006.018.006a.753.753,0,0,0,.337.041c.053.036.284.255.373.337a3.8,3.8,0,0,0-.651.438,2.5,2.5,0,0,1-.1-.645C16.675,13.8,16.687,13.73,16.693,13.683ZM15.527,9.2a.776.776,0,0,1,.332.32c.018.047.03.089.041.13a.845.845,0,0,0-.308-.024,1.485,1.485,0,0,0-.42-.45A.567.567,0,0,1,15.527,9.2Zm-.787-.059c0-.006.006-.006.006-.018a1.246,1.246,0,0,0,.746.539.436.436,0,0,0-.095.065.925.925,0,0,1-.444-.124c-.059-.071-.089-.13-.136-.124s.006-.077-.041-.107S14.633,9.349,14.74,9.142Zm-.166,2.623a1.267,1.267,0,0,0,.107.355.541.541,0,0,0-.041.083,1.022,1.022,0,0,0-.16-.444A.176.176,0,0,0,14.574,11.765ZM10.448,14c.491-.574.533-.77.45-1.024a2.647,2.647,0,0,0-.527-.793c-.136-.136-.337-.237-1-.03a.816.816,0,0,1-.971-.284.281.281,0,0,0,.071,0,.255.255,0,0,1,.16.018.267.267,0,0,0,.249-.059c.077-.059.053-.018.095-.018s.077-.036.207-.053a.792.792,0,0,0,.29-.154c.071.018.178-.1.243-.172s.041.036.089.006.053.024.118.03a1.037,1.037,0,0,0,.26-.071c.112.036.314-.184.314-.184.095.006.189-.112.189-.112.148.053.237-.041.32-.124a.309.309,0,0,1,.189-.124c.077-.024.083-.059.166-.142s.071-.018.124-.006.095-.047.124.006.024.089.124.018.047.26.047.355.065.172.207.2.26-.136.26-.136a.286.286,0,0,0,.278-.1c.036-.071.053-.065.077-.024s.142.024.2-.065.083-.012.13.036.095.047.13,0,.059.018.13-.012.107-.006.184.036.024.1.03.154.077.089.124.172.047.059.13.1a1.959,1.959,0,0,1,.284.207.154.154,0,0,0,.243-.041c.018.071.041.189.077.189h0c.036,0,.065-.095.089-.148.036.047.077.036.118.053a1.172,1.172,0,0,0,.041,1.131h0c.018,0,.03-.024.041-.053a1.652,1.652,0,0,1,.018.408,1.875,1.875,0,0,0-.272.556,3.244,3.244,0,0,0-2.38.036A4.562,4.562,0,0,1,10.448,14Zm3.588.7a2.911,2.911,0,0,1-.4.829,3.519,3.519,0,0,1-1.812-.509q.115-.036.213-.071a4.173,4.173,0,0,1,1.8-.26C13.9,14.689,13.97,14.7,14.035,14.7Zm-2.788.438c.077-.012.148-.018.237-.036a3.026,3.026,0,0,0,2.2.787,3.81,3.81,0,0,0,2.51-.8,3.783,3.783,0,0,0,2.5.8,3,3,0,0,0,2.2-.781,1.845,1.845,0,0,0,.237.03,19.357,19.357,0,0,1-.13,4.037H11.371A20.006,20.006,0,0,1,11.247,15.133Zm.13,4.328h9.638a10.364,10.364,0,0,1-.935,3.386H12.312A10.364,10.364,0,0,1,11.377,19.461ZM16.2,27.346a10.9,10.9,0,0,1-3.736-4.227h7.471A10.9,10.9,0,0,1,16.2,27.346Z" transform="translate(-4.93 -6.998)" fill="#fff"/>
      <path id="Trazado_913" data-name="Trazado 913" d="M26.406,25.328a.777.777,0,0,0,.45-.166.532.532,0,0,0,.213.03.7.7,0,0,0,.61-.42.534.534,0,0,0,.343-.059.652.652,0,0,0,.3-.7.157.157,0,0,0,.036-.03.577.577,0,0,0-.006-.8c-.006-.006-.012-.018-.024-.024a.292.292,0,0,0,.124-.225c0-.166-.2-.3-.379-.3s-.379.13-.379.3h0c0,.012-.112.041-.178.095a.42.42,0,0,0-.13.308.362.362,0,0,0-.083.041.53.53,0,0,0-.112.089.7.7,0,0,0-.16-.018.589.589,0,0,0-.225.047.731.731,0,0,0-.444-.136.919.919,0,0,0-.829.995A.937.937,0,0,0,26.406,25.328Z" transform="translate(-13.334 -13.38)" fill="#fff"/>
      <path id="Trazado_914" data-name="Trazado 914" d="M17.571,24c.012.012.024.018.036.03a.645.645,0,0,0,.29.7.575.575,0,0,0,.343.059.7.7,0,0,0,.61.42.619.619,0,0,0,.213-.03.777.777,0,0,0,.45.166.99.99,0,0,0,.036-1.96.743.743,0,0,0-.444.136.589.589,0,0,0-.225-.047.735.735,0,0,0-.16.018.534.534,0,0,0-.118-.083.512.512,0,0,0-.1-.041.41.41,0,0,0-.118-.308.745.745,0,0,0-.2-.095h0a.346.346,0,0,0-.361-.3.325.325,0,0,0-.343.3.258.258,0,0,0,.112.225c-.006.006-.018.012-.024.024A.569.569,0,0,0,17.571,24Z" transform="translate(-10.023 -13.392)" fill="#fff"/>
      <path id="Trazado_915" data-name="Trazado 915" d="M23.427,31.4l.4-.6-.077-.284.314.041c.024.13.107.284.231.3a1.486,1.486,0,0,0,.337,0l.118-.136a2.541,2.541,0,0,0-.332-.26,6.141,6.141,0,0,0-.3-1.7c-.107-.3-.243-.308-.509-.272a4.692,4.692,0,0,0-.989.474l-.047.42.249.03s-.142.474-.189.639-.006.16.083.225a2.087,2.087,0,0,0,.438.148l-.1.438Z" transform="translate(-12.131 -15.756)" fill="#fff"/>
      <path id="Trazado_916" data-name="Trazado 916" d="M22.42,23.253c.142.829.681.906.888.9a3.346,3.346,0,0,1-.053.527l.26.178a4.439,4.439,0,0,0,0-.847c.633-.089.758-1.03.758-1.03a1.187,1.187,0,0,0-.77.924,1.642,1.642,0,0,0-.166-.592.8.8,0,0,0,.456-1.379l.13-.243-.278.053-.112-.213-.207.166L23.2,21.53l-.13.189-.249-.136.077.225a.793.793,0,0,0-.444.716.8.8,0,0,0,.663.787,1.481,1.481,0,0,1,.189.675A1.818,1.818,0,0,0,22.42,23.253Zm.87.047c-.2,0-.349-.343-.349-.77s.16-.764.349-.764.349.343.349.764S23.48,23.3,23.29,23.3Z" transform="translate(-12.066 -12.927)" fill="#fff"/>
      <path id="Trazado_917" data-name="Trazado 917" d="M24.372,35.615a.649.649,0,0,1,0-.515h-.959a.649.649,0,0,0,0,.515Z" transform="translate(-12.449 -18.463)" fill="#fff"/>
      <path id="Trazado_918" data-name="Trazado 918" d="M23.4,38a1.133,1.133,0,0,0,0,.687h.959a1.133,1.133,0,0,1,0-.687Z" transform="translate(-12.445 -19.646)" fill="#fff"/>
      <path id="Trazado_919" data-name="Trazado 919" d="M24.055,36.485l.219-.343H22.8l-.16-.172h-.61l.071.172h.148l.16.343Z" transform="translate(-11.907 -18.818)" fill="#fff"/>
      <path id="Trazado_920" data-name="Trazado 920" d="M24.292,39.332H23.048l-.089-.172h-.32l.095.2L23,39.5h1.267l.255-.148.036-.2h-.207Z" transform="translate(-12.156 -20.12)" fill="#fff"/>
    </g>
    <g id="Grupo_725" data-name="Grupo 725" transform="translate(40.776 7.623)">
      <g id="Grupo_724" data-name="Grupo 724">
        <path id="Trazado_921" data-name="Trazado 921" d="M80.943,15.359A7.739,7.739,0,0,0,75.7,13.275c-4.553,0-7.187,3.41-7.157,7.518,0,3.552,2.108,6.992,7.157,6.992a6.913,6.913,0,0,0,4.742-1.723V22.12H75.029V19.343h8.294v7.963a9.776,9.776,0,0,1-7.631,3.386c-7.134,0-10.212-4.742-10.212-9.9,0-5.606,3.582-10.378,10.212-10.378a10.214,10.214,0,0,1,7.187,2.942Z" transform="translate(-65.48 -10.41)" fill="#fff"/>
        <path id="Trazado_922" data-name="Trazado 922" d="M119.721,20.624c0,5.263-3.2,10.088-9.975,10.088S99.77,25.781,99.77,20.654c0-5.932,4.15-10.224,10.029-10.224C116.459,10.46,119.721,15.361,119.721,20.624Zm-9.975,7.217c4.849,0,6.885-3.428,6.885-7.163,0-3.593-2.06-7.329-6.826-7.412-4.511,0-6.938,3.149-6.938,7.412C102.919,24.135,104.926,27.841,109.745,27.841Z" transform="translate(-79.47 -10.418)" fill="#fff"/>
        <path id="Trazado_923" data-name="Trazado 923" d="M146.01,30.753h-3.369L134.27,10.53h3.623L144.31,26.9l6.441-16.369h3.593Z" transform="translate(-93.546 -10.459)" fill="#fff"/>
        <path id="Trazado_924" data-name="Trazado 924" d="M168.937,39.851a2.034,2.034,0,1,1-4.067,0A2.034,2.034,0,0,1,168.937,39.851Z" transform="translate(-106.03 -21.599)" fill="#fff"/>
        <path id="Trazado_925" data-name="Trazado 925" d="M192.834,27.805a10.258,10.258,0,0,1-7.347,2.907c-7.1,0-10.283-4.89-10.307-10.029s3.327-10.254,10.307-10.254a9.991,9.991,0,0,1,7.151,2.96l-2.1,2.013a7.188,7.188,0,0,0-5.056-2.013c-4.973,0-7.234,3.659-7.211,7.264.03,3.576,2.149,7.122,7.211,7.122a7.561,7.561,0,0,0,5.2-2.125Z" transform="translate(-110.237 -10.418)" fill="#fff"/>
        <path id="Trazado_926" data-name="Trazado 926" d="M229.321,20.7c0,5.251-3.2,10.052-9.946,10.052s-9.946-4.92-9.946-10.029c0-5.914,4.138-10.194,10-10.194C226.071,10.56,229.321,15.45,229.321,20.7Zm-9.94,7.193c4.831,0,6.861-3.416,6.861-7.14,0-3.582-2.054-7.305-6.808-7.388-4.5,0-6.915,3.138-6.915,7.388C212.574,24.2,214.575,27.894,219.382,27.894Z" transform="translate(-124.21 -10.459)" fill="#fff"/>
      </g>
    </g>
    <g id="Grupo_726" data-name="Grupo 726" transform="translate(32.671 3.58)">
      <rect id="Rectángulo_486" data-name="Rectángulo 486" width="2.185" height="12.172" transform="translate(0)" fill="#fcd102"/>
      <rect id="Rectángulo_487" data-name="Rectángulo 487" width="2.185" height="8.111" transform="translate(0 12.166)" fill="#0555a0"/>
      <rect id="Rectángulo_488" data-name="Rectángulo 488" width="2.185" height="8.116" transform="translate(0 20.282)" fill="#d21c3b"/>
    </g>
  </g>
</svg>
