<svg xmlns="http://www.w3.org/2000/svg" width="20.158" height="15" viewBox="0 0 20.158 15">
  <path id="Trazado_184" data-name="Trazado 184" d="M34.07,89.57H16.791a1.439,1.439,0,0,1-1.439-1.44h0a1.439,1.439,0,0,1,1.439-1.439H34.07a1.44,1.44,0,0,1,1.44,1.439h0A1.44,1.44,0,0,1,34.07,89.57Zm1.44,4.621h0a1.44,1.44,0,0,0-1.44-1.44H16.791a1.439,1.439,0,0,0-1.439,1.44h0a1.439,1.439,0,0,0,1.439,1.439H34.07A1.44,1.44,0,0,0,35.51,94.191Zm0,6.06h0a1.44,1.44,0,0,0-1.44-1.44H16.791a1.439,1.439,0,0,0-1.439,1.44h0a1.44,1.44,0,0,0,1.439,1.44H34.07A1.44,1.44,0,0,0,35.51,100.251Z" transform="translate(-15.352 -86.691)" fill="#0c5194"/>
</svg>
